#!OML:ASF H:\ManfredETheater\Project 1\Capture day 1\Session 1\subject.ASF
:FULLY-SPECIFIED
:DEGREES
79
root 4.68967 14.7104 -25.5982 -19.7749 -67.2363 33.1742
lowerback 42.1532 1.85114 1.2889
upperback 11.4599 1.53375 -0.753316
thorax -7.17203 0.32588 -2.02917
lowerneck -10.8756 27.358 -0.0725112
upperneck 2.26665 50.4934 -1.72036
head 32.1657 -51.176 148.811
rclavicle -2.8625e-014 6.20208e-014
rhumerus -24.2106 -0.53754 -68.652
rradius 92.2887
rwrist -5.91891
rhand -26.8635 -2.63036
rfingers 7.12502
rthumb -0.28825 -32.6099
lclavicle -2.8625e-014 6.20208e-014
lhumerus -35.1776 3.87445 87.6399
lradius 100.8
lwrist 0.276219
lhand -32.23 -3.60762
lfingers 7.12502
lthumb -5.47077 26.3018
rfemur -69.0509 -20.6944 26.7012
rtibia 96.4652
rfoot -18.0404 -6.48702
rtoes -23.3365
lfemur -65.4379 20.9823 -21.6202
ltibia 87.7627
lfoot -9.52605 -24.8618
ltoes -10.9335
80
root 4.74176 14.6353 -25.4548 -19.8202 -67.4641 33.8212
lowerback 42.5615 1.74482 1.49689
upperback 11.5275 1.46564 -0.783056
thorax -7.20999 0.291142 -2.14265
lowerneck -11.2307 27.3063 -0.409075
upperneck 2.20964 50.4107 -1.82311
head 32.2161 -51.3035 148.611
rclavicle -7.95139e-015 6.20208e-014
rhumerus -23.0858 -0.207964 -67.8484
rradius 91.6177
rwrist -5.5424
rhand -26.9153 -2.37395
rfingers 7.12502
rthumb -0.338244 -32.3534
lclavicle -7.95139e-015 6.20208e-014
lhumerus -35.5407 4.21436 87.6842
lradius 102.264
lwrist -0.0490609
lhand -31.5253 -4.30658
lfingers 7.12502
lthumb -4.79033 25.6193
rfemur -69.0977 -20.1958 25.8579
rtibia 96.4096
rfoot -20.2764 -6.45815
rtoes -24.9285
lfemur -66.1622 20.5169 -20.103
ltibia 88.0451
lfoot -10.1626 -24.1344
ltoes -9.45266
81
root 4.79514 14.5588 -25.3124 -19.9071 -67.7017 34.5066
lowerback 43.0299 1.63192 1.71838
upperback 11.5744 1.39641 -0.824854
thorax -7.28595 0.255938 -2.27556
lowerneck -11.6257 27.2407 -0.756158
upperneck 2.13045 50.3282 -1.94714
head 32.2878 -51.465 148.396
rclavicle 5.725e-014 -2.70347e-014
rhumerus -21.9145 0.0653628 -67.0506
rradius 90.9368
rwrist -5.08354
rhand -26.94 -2.051
rfingers 7.12502
rthumb -0.362185 -32.0304
lclavicle 5.725e-014 -2.70347e-014
lhumerus -35.8739 4.54312 87.6024
lradius 103.669
lwrist -0.254625
lhand -30.9895 -4.98082
lfingers 7.12502
lthumb -4.27297 24.9561
rfemur -69.308 -19.7914 25.0625
rtibia 96.4815
rfoot -22.3212 -6.52092
rtoes -25.8355
lfemur -66.6968 20.0526 -18.4511
ltibia 88.0088
lfoot -11.036 -22.8755
ltoes -8.51824
82
root 4.84932 14.4812 -25.1708 -20.0432 -67.9657 35.2251
lowerback 43.5749 1.51769 1.9612
upperback 11.6064 1.33445 -0.883579
thorax -7.39667 0.223934 -2.44042
lowerneck -12.0725 27.1602 -1.10471
upperneck 2.02217 50.2355 -2.09366
head 32.378 -51.6615 148.165
rclavicle 1.59028e-015 3.97569e-015
rhumerus -20.7004 0.268755 -66.2682
rradius 90.2444
rwrist -4.61855
rhand -26.9393 -1.67787
rfingers 7.12502
rthumb -0.361417 -31.6573
lclavicle 1.59028e-015 3.97569e-015
lhumerus -36.157 4.847 87.3756
lradius 104.992
lwrist -0.351632
lhand -30.6645 -5.53299
lfingers 7.12502
lthumb -3.95913 24.41
rfemur -69.6908 -19.4758 24.3463
rtibia 96.6534
rfoot -24.0989 -6.6141
rtoes -26.1517
lfemur -67.0418 19.6411 -16.7019
ltibia 87.6591
lfoot -12.0007 -21.2344
ltoes -8.19389
83
root 4.90324 14.4029 -25.0294 -20.3003 -68.2732 36.0364
lowerback 44.2115 1.42203 2.19441
upperback 11.629 1.29034 -0.956347
thorax -7.5391 0.199046 -2.62257
lowerneck -12.5726 27.0643 -1.45718
upperneck 1.88689 50.1298 -2.261
head 32.4899 -51.8937 147.91
rclavicle -7.95139e-015 9.54166e-015
rhumerus -19.4491 0.409349 -65.4807
rradius 89.5437
rwrist -4.22112
rhand -26.9052 -1.27758
rfingers 7.12502
rthumb -0.328525 -31.2571
lclavicle -7.95139e-015 9.54166e-015
lhumerus -36.3781 5.13966 87.0228
lradius 106.214
lwrist -0.377241
lhand -30.6263 -5.84533
lfingers 7.12502
lthumb -3.92228 24.0983
rfemur -70.2272 -19.2367 23.7231
rtibia 96.8967
rfoot -25.5338 -6.75929
rtoes -25.75
lfemur -67.1824 19.3134 -14.9174
ltibia 87.0028
lfoot -12.9615 -19.3456
ltoes -8.41864
84
root 4.95655 14.3241 -24.8885 -20.6847 -68.629 36.9561
lowerback 44.9186 1.34965 2.40124
upperback 11.6501 1.26204 -1.04156
thorax -7.69768 0.180237 -2.81084
lowerneck -13.1291 26.9617 -1.81367
upperneck 1.72774 50.0299 -2.44874
head 32.6236 -52.1428 147.631
rclavicle 1.59028e-015 5.56597e-014
rhumerus -18.1495 0.509307 -64.6854
rradius 88.8305
rwrist -3.94465
rhand -26.86 -0.879958
rfingers 7.12502
rthumb -0.284902 -30.8595
lclavicle 1.59028e-015 5.56597e-014
lhumerus -36.5171 5.43814 86.5467
lradius 107.316
lwrist -0.350194
lhand -30.8627 -5.854
lfingers 7.12502
lthumb -4.15054 24.0853
rfemur -70.9256 -19.0643 23.212
rtibia 97.2186
rfoot -26.6802 -6.97348
rtoes -24.9694
lfemur -67.1256 19.0575 -13.104
ltibia 86.0568
lfoot -13.6643 -17.3454
ltoes -8.55756
85
root 5.00788 14.2475 -24.7482 -21.236 -69.049 38.003
lowerback 45.709 1.31059 2.56847
upperback 11.6774 1.25379 -1.13659
thorax -7.86547 0.168814 -2.99767
lowerneck -13.7416 26.8565 -2.17525
upperneck 1.54841 49.941 -2.65452
head 32.7786 -52.3991 147.325
rclavicle 3.02153e-014 9.54166e-015
rhumerus -16.7912 0.581519 -63.877
rradius 88.0955
rwrist -3.80676
rhand -26.8245 -0.501546
rfingers 7.12502
rthumb -0.250576 -30.4811
lclavicle 3.02153e-014 9.54166e-015
lhumerus -36.5666 5.76094 85.9672
lradius 108.293
lwrist -0.284309
lhand -31.3238 -5.51321
lfingers 7.12502
lthumb -4.59584 24.4169
rfemur -71.73 -18.9243 22.7915
rtibia 97.6128
rfoot -27.5851 -7.2595
rtoes -24.1031
lfemur -66.8248 18.8421 -11.2539
ltibia 84.8337
lfoot -14.0343 -15.2688
ltoes -8.53358
